<svg width="43" height="43" viewBox="0 0 43 43" fill="none" xmlns="http://www.w3.org/2000/svg">
<path d="M42.3107 19.6859C42.8662 17.4323 42.6953 15.1109 41.804 12.9434C40.9189 10.7821 39.4171 9.02104 37.4393 7.82031C38.0375 10.1663 37.9337 12.5986 37.1279 14.8954C39.3073 15.9483 41.0898 17.5985 42.3107 19.6859Z" fill="#FED422"/>
<path d="M35.7117 36.0341C36.6152 33.6573 36.664 31.0403 35.846 28.645C33.508 29.464 30.9868 29.544 28.6121 28.8728C29.2836 31.2805 29.2042 33.7989 28.3862 36.1696C30.7609 36.9885 33.3554 36.9454 35.7117 36.0341Z" fill="#FF8300"/>
<path d="M21.311 31.9023C20.0901 34.0944 18.277 35.8186 16.0366 36.9146C17.1354 39.1929 19.0034 41.0094 21.311 42.05C23.6185 41.0155 25.4865 39.1991 26.5853 36.9208C24.3449 35.8247 22.5258 34.1006 21.311 31.9023Z" fill="#FF8300"/>
<path d="M14.0162 28.8542C11.6354 29.5315 9.10201 29.4515 6.77006 28.6387C5.95205 31.034 5.99478 33.6509 6.89826 36.0278C9.25462 36.9391 11.8491 36.9883 14.2237 36.1632C13.4118 33.7926 13.3386 31.2741 14.0162 28.8542Z" fill="#FF8300"/>
<path d="M14.2358 6.83493C11.855 6.00982 9.27891 6.04677 6.91034 6.96424C6.00686 9.34106 5.95802 11.958 6.77604 14.3533C9.1324 13.5282 11.6231 13.4482 14.0099 14.1255C13.3384 11.7179 13.4178 9.2056 14.2358 6.83493Z" fill="#FF8300"/>
<path d="M21.3234 0.948242C19.0159 1.98271 17.1479 3.7992 16.043 6.07749C18.2895 7.17354 20.1025 8.8915 21.3173 11.0774C22.5321 8.8915 24.3452 7.17354 26.5917 6.07749C25.4928 3.80535 23.6248 1.98887 21.3234 0.948242Z" fill="#FF8300"/>
<path d="M35.8521 14.3593C36.6701 11.964 36.6274 9.34699 35.7239 6.97017C33.3737 6.05885 30.767 6.00959 28.3984 6.82855C29.2164 9.20537 29.2958 11.7177 28.6243 14.1253C29.6987 13.8235 30.7914 13.6696 31.8841 13.6696C33.2149 13.6758 34.5579 13.9036 35.8521 14.3593Z" fill="#FF8300"/>
<path d="M6.0314 16.1758C3.7727 17.2903 1.97186 19.1684 0.946289 21.4959C1.97186 23.8235 3.7727 25.7077 6.0314 26.8161C7.11801 24.5562 8.82729 22.7274 10.9944 21.5021C8.82118 20.2767 7.1119 18.4418 6.0314 16.1758Z" fill="#FF8300"/>
<path d="M36.5968 16.1821C35.5102 18.4481 33.8009 20.2831 31.6338 21.5023C33.807 22.7338 35.5102 24.5626 36.5968 26.8224C38.8555 25.714 40.6563 23.8298 41.688 21.5023C40.6563 19.1747 38.8616 17.2966 36.5968 16.1821Z" fill="#FF8300"/>
<path d="M29.8024 0.831171C27.6902 -0.0555187 25.3583 -0.234088 23.124 0.32625C25.1874 1.55776 26.8234 3.35577 27.8612 5.54787C30.1382 4.74123 32.5495 4.63655 34.8814 5.24615C33.7093 3.25109 31.9573 1.73018 29.8024 0.831171Z" fill="#FED422"/>
<path d="M7.74658 5.23378C8.73552 4.97517 9.74278 4.84586 10.75 4.84586C12.1052 4.84586 13.4544 5.07985 14.7607 5.54166C15.8046 3.34957 17.4406 1.55156 19.5162 0.320048C17.2819 -0.24029 14.9561 -0.061721 12.8317 0.831126C10.6829 1.72397 8.93087 3.24489 7.74658 5.23378Z" fill="#FED422"/>
<path d="M5.19511 7.80762C3.22334 9.00218 1.71551 10.7694 0.830347 12.9307C-0.0548154 15.092 -0.231848 17.4134 0.329772 19.6732C1.55679 17.5797 3.33322 15.9356 5.50645 14.8827C4.69454 12.5859 4.59076 10.1536 5.19511 7.80762Z" fill="#FED422"/>
<path d="M5.49419 28.1031C3.32097 27.0501 1.54454 25.3999 0.323623 23.3125C-0.237998 25.5723 -0.0670696 27.8937 0.824198 30.055C1.71546 32.2225 3.21719 33.9836 5.18896 35.1843C4.58461 32.8383 4.68839 30.3999 5.49419 28.1031Z" fill="#FED422"/>
<path d="M7.74072 37.7584C8.92501 39.7473 10.677 41.2682 12.8197 42.161C14.9685 43.06 17.27 43.2324 19.5042 42.6721C17.4348 41.4406 15.8049 39.6426 14.761 37.4443C12.4962 38.2571 10.0605 38.3618 7.74072 37.7584Z" fill="#FED422"/>
<path d="M23.1118 42.6779C25.3461 43.2382 27.6475 43.0658 29.7963 42.1729C31.939 41.2801 33.691 39.7592 34.8814 37.7641C32.5617 38.3676 30.1199 38.2629 27.8612 37.4624C26.8173 39.6483 25.1813 41.4463 23.1118 42.6779Z" fill="#FED422"/>
<path d="M41.7982 30.0672C42.6894 27.8998 42.8604 25.5784 42.3049 23.3247C41.0839 25.4121 39.3014 27.0562 37.1221 28.1091C37.9218 30.3998 38.0194 32.8381 37.4212 35.1903C39.4052 33.9896 40.913 32.2285 41.7982 30.0672Z" fill="#FED422"/>
<path d="M27.1163 7.37061C24.9065 8.46665 23.1423 10.3016 22.1167 12.5676C23.9298 12.7277 25.6146 13.4296 27.0126 14.6057C27.8672 12.272 27.9099 9.7228 27.1163 7.37061Z" fill="#E43D30"/>
<path d="M15.5115 7.37061C14.7179 9.7228 14.7545 12.2782 15.6153 14.6119C17.0132 13.4358 18.6981 12.7338 20.5111 12.5676C19.4856 10.3016 17.7214 8.46665 15.5115 7.37061Z" fill="#E43D30"/>
<path d="M12.4594 20.6895C12.6242 18.8607 13.3201 17.1612 14.4861 15.7511C12.1603 14.8767 9.63297 14.8398 7.30713 15.6403C8.39374 17.8693 10.2129 19.6489 12.4594 20.6895Z" fill="#E43D30"/>
<path d="M7.30713 27.3458C9.63297 28.1401 12.1664 28.1032 14.48 27.2349C13.314 25.8249 12.6242 24.1315 12.4594 22.3027C10.2129 23.3434 8.39374 25.1229 7.30713 27.3458Z" fill="#E43D30"/>
<path d="M15.5055 35.6277C17.7093 34.5317 19.4735 32.6967 20.4991 30.4369C18.686 30.2706 17.0073 29.5687 15.6154 28.3926C14.7608 30.7263 14.7181 33.2755 15.5055 35.6277Z" fill="#E43D30"/>
<path d="M22.1167 30.4371C23.1423 32.6969 24.9065 34.5319 27.1102 35.6279C27.8977 33.2819 27.8611 30.7265 27.0065 28.3989C25.6146 29.575 23.9298 30.277 22.1167 30.4371Z" fill="#E43D30"/>
<path d="M30.1752 22.3149C30.0103 24.1437 29.3144 25.8432 28.1484 27.2472C30.4621 28.1092 32.9894 28.1523 35.3152 27.3518C34.2347 25.1351 32.4155 23.3556 30.1752 22.3149Z" fill="#E43D30"/>
<path d="M28.1484 15.7571C29.3144 17.1672 30.0103 18.8605 30.1752 20.6955C32.4155 19.661 34.2347 17.8815 35.3213 15.6524C32.9955 14.852 30.4743 14.8827 28.1484 15.7571Z" fill="#E43D30"/>
<path d="M21.317 13.9468C17.1903 13.9468 13.8267 17.3334 13.8267 21.5021C13.8267 25.6708 17.1842 29.0574 21.317 29.0574C25.4437 29.0574 28.8073 25.6708 28.8073 21.5021C28.8073 17.3334 25.4437 13.9468 21.317 13.9468Z" fill="#E43D30"/>
</svg>
